<svg xmlns="http://www.w3.org/2000/svg" version="1.1" xmlns:xlink="http://www.w3.org/1999/xlink" xmlns:svgjs="http://svgjs.com/svgjs" width="28" height="18"><svg width="28" height="18" viewBox="0 0 28 18" fill="none" xmlns="http://www.w3.org/2000/svg">
<path d="M25.6516 18.0003C25.1587 18.0003 24.7823 17.8547 24.5224 17.5636C24.2625 17.2624 24.1326 16.896 24.1326 16.4643C24.1326 16.0226 24.2715 15.6612 24.5493 15.3801C24.8271 15.0889 25.1945 14.9434 25.6516 14.9434C26.1086 14.9434 26.4716 15.0939 26.7404 15.3951C27.0182 15.6963 27.1571 16.0527 27.1571 16.4643C27.1571 16.9261 27.0272 17.2975 26.7673 17.5786C26.5164 17.8597 26.1445 18.0003 25.6516 18.0003Z" fill="#FFD0A7"></path>
<path d="M19.7587 0H25.6452L21.5639 17.9996H17.0179L19.7587 0Z" fill="#FFD0A7"></path>
<path d="M8.43278 11.2101L8.42989 11.2236L6.72935 0H0.842865L4.92416 17.9996H9.46258L8.43278 11.2101Z" fill="#563D91"></path>
<path d="M13.2437 3.06055H10.1828L8.91022 8.98663L10.2772 17.9991H11.02L13.2437 8.13625V3.06055Z" fill="#EF5543"></path>
<path d="M13.2436 3.06055H16.2915L18.0705 11.2231L17.0044 17.9991H15.4683L13.2436 8.13601V3.06055Z" fill="#FAB51D"></path>
</svg><style>@media (prefers-color-scheme: light) { :root { filter: none; } }
@media (prefers-color-scheme: dark) { :root { filter: contrast(0.3846153846153846) brightness(4.5); } }
</style></svg>