<svg width="281" height="32" viewBox="0 0 281 32" fill="none" xmlns="http://www.w3.org/2000/svg">
<path d="M255.016 31.3674V4.14931H262.928L273.609 18.5891V4.14931H280.889V31.3674H272.976L262.295 17.521V31.3674H255.016Z" fill="var(--clr-logo)""/>
<path d="M233.162 31.3674V4.14931H252.27V10.1626H242.775V14.9891H251.439V19.9738H242.775V25.1563H252.27V31.3674H233.162Z" fill="var(--clr-logo)""/>
<path d="M203.349 31.3674V4.14931H212.25V14.3956H220.677V4.14931H229.618V31.3674H220.677V20.6463H212.25V31.3674H203.349Z" fill="var(--clr-logo)""/>
<path d="M193.815 32C190.967 32 188.474 31.433 186.338 30.2989C184.228 29.1384 182.58 27.5164 181.393 25.4329C180.232 23.3493 179.652 20.9229 179.652 18.1536C179.652 15.3052 180.259 12.7865 181.472 10.5974C182.711 8.40839 184.399 6.69407 186.536 5.45449C188.698 4.18853 191.178 3.55556 193.973 3.55556C197.085 3.55556 199.525 4.16216 201.292 5.37537L200.224 11.6656C199.459 11.2963 198.655 11.0326 197.811 10.8744C196.993 10.6897 196.215 10.5974 195.477 10.5974C193.314 10.5974 191.613 11.2436 190.373 12.5359C189.134 13.8283 188.514 15.6217 188.514 17.9162C188.514 20.0789 189.107 21.78 190.294 23.0196C191.507 24.2328 193.182 24.8394 195.318 24.8394C196.162 24.8394 196.927 24.7603 197.613 24.6021C198.325 24.4438 199.195 24.1537 200.224 23.7317L201.332 29.9824C199.037 31.3275 196.531 32 193.815 32Z" fill="var(--clr-logo)""/>
<path d="M143.746 31.3672V4.14915H151.659L162.34 18.589V4.14915H169.619V31.3672H161.707L151.026 17.5208V31.3672H143.746Z" fill="var(--clr-logo)""/>
<path d="M131.28 31.3672V4.14915H140.221V31.3672H131.28Z" fill="var(--clr-logo)""/>
<path d="M118.12 32C116.459 32 114.771 31.789 113.056 31.367C111.342 30.9714 109.891 30.4307 108.705 29.745L110.129 23.2966C111.659 24.1141 113.083 24.6548 114.401 24.9186C115.747 25.1559 116.986 25.2746 118.12 25.2746C119.175 25.2746 119.966 25.1032 120.494 24.7603C121.048 24.4175 121.325 23.9559 121.325 23.3757C121.325 22.8482 121.021 22.4394 120.415 22.1493C119.808 21.8328 119.017 21.5427 118.041 21.2789C117.092 21.0152 116.076 20.7119 114.995 20.369C113.914 19.9998 112.885 19.5251 111.909 18.9448C110.96 18.3382 110.182 17.547 109.575 16.5712C108.968 15.5689 108.665 14.3162 108.665 12.8129C108.665 10.9139 109.127 9.27873 110.05 7.90728C110.973 6.50945 112.292 5.4413 114.006 4.70283C115.72 3.93798 117.738 3.55556 120.059 3.55556C121.615 3.55556 123.131 3.76655 124.608 4.18853C126.112 4.58414 127.312 5.12481 128.208 5.81054L126.863 11.626C125.518 11.0722 124.305 10.6766 123.224 10.4392C122.169 10.1754 121.166 10.0436 120.217 10.0436C119.109 10.0436 118.265 10.2018 117.685 10.5183C117.105 10.8348 116.815 11.2568 116.815 11.7843C116.815 12.2854 117.118 12.6942 117.725 13.0107C118.331 13.3272 119.109 13.6305 120.059 13.9206C121.008 14.2107 122.024 14.5404 123.105 14.9096C124.186 15.2788 125.202 15.7668 126.151 16.3734C127.101 16.98 127.879 17.7712 128.485 18.747C129.092 19.7229 129.395 20.9493 129.395 22.4262C129.395 25.4856 128.393 27.8461 126.388 29.5076C124.41 31.1692 121.654 32 118.12 32Z" fill="var(--clr-logo)""/>
<path d="M80.0004 31.3672V4.14915H88.9016V14.3955H97.3281V4.14915H106.269V31.3672H97.3281V20.6461H88.9016V31.3672H80.0004Z" fill="var(--clr-logo)""/>
<path d="M67.5345 31.3672V4.14915H76.4753V31.3672H67.5345Z" fill="var(--clr-logo)""/>
<path d="M45.6806 31.3672V4.14915H64.7886V10.1624H55.2939V14.9889H63.9578V19.9736H55.2939V25.1561H64.7886V31.3672H45.6806Z" fill="var(--clr-logo)""/>
<path d="M33.6281 0H44.0932L36.8374 32H28.7555L33.6281 0Z" fill="#FFD0A7"/>
<path d="M13.4935 19.9296L13.4884 19.9535L10.4651 0H0L7.25581 32H15.3243L13.4935 19.9296Z" fill="#563D91"/>
<path d="M22.0461 5.44187H16.6043L14.3419 15.9774L16.7722 32H18.0927L22.0461 14.4656V5.44187Z" fill="#EF5543"/>
<path d="M22.046 5.44187H27.4646L30.6274 19.9535L28.732 32H26.0011L22.046 14.4651V5.44187Z" fill="#FAB51D"/>
</svg>
