<svg width="63" height="40" viewBox="0 0 63 40" fill="none" xmlns="http://www.w3.org/2000/svg" role="img" aria-label="logo - W">
<path d="M57.0027 40.0001C55.9074 40.0001 55.071 39.6766 54.4935 39.0297C53.9159 38.3604 53.6272 37.5461 53.6272 36.5868C53.6272 35.6052 53.9359 34.8021 54.5532 34.1775C55.1705 33.5305 55.987 33.207 57.0027 33.207C58.0183 33.207 58.8248 33.5417 59.4222 34.2109C60.0396 34.8802 60.3483 35.6722 60.3483 36.5868C60.3483 37.613 60.0595 38.4385 59.482 39.0631C58.9244 39.6878 58.0979 40.0001 57.0027 40.0001Z" fill="#FFD0A7"/>
<path d="M43.9075 0H56.9884L47.919 39.9984H37.817L43.9075 0Z" fill="#FFD0A7"/>
<path d="M18.7392 24.911L18.7328 24.9409L14.9539 0H1.87301L10.9424 39.9984H21.0276L18.7392 24.911Z" fill="#563D91"/>
<path d="M29.43 6.80176H22.6281L19.8002 19.9706L22.8379 39.9981H24.4885L29.43 18.0809V6.80176Z" fill="#EF5543"/>
<path d="M29.4298 6.80176H36.2028L40.1561 24.9406L37.787 39.9981H34.3735L29.4298 18.0804V6.80176Z" fill="#FAB51D"/>
</svg>
